<svg xmlns="http://www.w3.org/2000/svg" viewBox="0 0 32 32"><title>Aptos</title>
<circle cx="16" cy="16" r="16" fill="#000"/>
<g fill="#fff">
<path d="M25.9 12.05h-4.63a1.4 1.4 0 01-.98-.4l-1.2-1.17a1.36 1.36 0 00-1.9 0l-1.03 1a1.9 1.9 0 01-1.32.53H4.4a12.9 12.9 0 011.7-2.86h7.7a1.9 1.9 0 001.33-.54l1.02-1a1.36 1.36 0 011.9 0l1.2 1.18c.26.25.61.4.98.4h2.9c1.06.9 1.98 1.94 2.74 3.1z"/>
<path d="M27.62 18.62H16.9a1.9 1.9 0 00-1.33.54l-1.02 1a1.36 1.36 0 01-1.9 0l-1.2-1.18a1.4 1.4 0 00-.98-.4H3.1a12.98 12.98 0 01-.5-3.1h8.9a1.9 1.9 0 001.33-.53l1.02-1a1.36 1.36 0 011.9 0l1.2 1.17c.26.26.61.4.98.4h11.5c0 1.06-.28 2.15-.5 3.1z"/>
<path d="M23.7 24.5h-8.55a1.4 1.4 0 01-.98-.4l-1.2-1.18a1.36 1.36 0 00-1.9 0l-1.03 1a1.9 1.9 0 01-1.32.54H6.4a12.94 12.94 0 01-1.9-2.4h5.9a1.9 1.9 0 001.32-.54l1.03-1a1.36 1.36 0 011.9 0l1.2 1.18c.26.25.61.4.98.4h9.6a13 13 0 01-2.73 2.4z"/>
</g>
</svg>
